# xmcd
#
# Track frame offsets:
#	150
#	18406
#	34434
#	55335
#	68478
#	84268
#	98581
#	115082
#	131418
#	151610
#	164926
#
# Disc length: 2422 seconds
#
# Revision: 0
# Processed by: cddbd v1.5.2PL0 Copyright (c) Steve Scherf et al.
# Submitted via: audiograbber 1.83.01
#
DISCID=8309740b
DTITLE=SUPERFLOOR - CHECK!
DYEAR=2005
DGENRE=Blues
TTITLE0=Bad Alright
TTITLE1=Oh Lord
TTITLE2=Showdown of Love
TTITLE3=Change Me
TTITLE4=Last Drop
TTITLE5=Yeah!
TTITLE6=Hold Me
TTITLE7=Higher
TTITLE8=No Shit
TTITLE9=Lucky
TTITLE10=Bad Alright (Live)
EXTD=
EXTT0=
EXTT1=
EXTT2=
EXTT3=
EXTT4=
EXTT5=
EXTT6=
EXTT7=
EXTT8=
EXTT9=
EXTT10=
PLAYORDER=
